<?xml version="1.0" standalone="no"?>
<!DOCTYPE svg PUBLIC "-//W3C//DTD SVG 20010904//EN"
 "http://www.w3.org/TR/2001/REC-SVG-20010904/DTD/svg10.dtd">
<svg version="1.0" xmlns="http://www.w3.org/2000/svg"
 width="256.000000pt" height="256.000000pt" viewBox="0 0 256.000000 256.000000"
 preserveAspectRatio="xMidYMid meet">
<metadata>
Created by potrace 1.11, written by Peter Selinger 2001-2013
</metadata>
<g transform="translate(0.000000,256.000000) scale(0.100000,-0.100000)"
fill="#000000" stroke="none">
<path d="M1240 2106 c0 -9 -18 -15 -58 -18 -74 -7 -149 -45 -195 -98 -51 -60
-67 -129 -67 -293 l0 -137 335 0 335 0 0 138 c0 159 -13 218 -63 284 -41 54
-123 97 -200 105 -38 4 -57 10 -57 19 0 8 -7 14 -15 14 -8 0 -15 -6 -15 -14z
m-61 -272 c26 -21 31 -33 31 -69 0 -36 -5 -48 -31 -69 -41 -35 -83 -34 -120 3
-85 85 29 212 120 135z m269 -9 c63 -73 -18 -182 -108 -145 -35 14 -63 69 -54
105 3 14 20 37 37 51 39 33 91 28 125 -11z"/>
<path d="M920 1455 l0 -55 335 0 335 0 0 55 0 55 -335 0 -335 0 0 -55z"/>
<path d="M1111 1305 c-125 -35 -192 -91 -210 -174 -14 -65 -14 -421 0 -481 5
-24 21 -59 35 -77 l25 -33 102 0 102 1 -54 18 c-31 11 -69 34 -90 55 l-36 36
-3 213 c-4 241 2 273 58 318 49 40 147 63 235 56 95 -8 139 -24 188 -68 l42
-37 0 -234 c0 -185 -3 -241 -14 -262 -18 -33 -70 -66 -131 -83 -42 -11 -39
-12 65 -10 l109 2 31 43 30 44 0 251 c0 229 -2 256 -19 291 -23 46 -86 94
-159 120 -71 25 -234 31 -306 11z"/>
</g>
</svg>
